<?xml version="1.0" encoding="utf-8"?>
<!-- Generator: Adobe Illustrator 24.0.0, SVG Export Plug-In . SVG Version: 6.00 Build 0)  -->
<svg version="1.1" id="Layer_1" xmlns="http://www.w3.org/2000/svg" xmlns:xlink="http://www.w3.org/1999/xlink" x="0px" y="0px"
	 viewBox="0 0 1296 1728" style="enable-background:new 0 0 1296 1728;" xml:space="preserve">
<style type="text/css">
	.st0{enable-background:new    ;}
</style>
<g>
	<g class="st0">
		<path d="M366.1,783.2l9.5,8.5H345l9.5-8.5V624l-10-8h37.1l31.9,98.6l27.1-98.6h37.7l-11,8v159.1l10.5,8.5h-48.9l10.3-8.5V667.5
			L406,792.7l-39.9-130V783.2z"/>
	</g>
	<g class="st0">
		<path d="M549.6,616l26.1,167.2l10.3,8.5h-49.2l10.5-8.5l-4.5-29.4h-27.4l-4.5,29.4l9.5,8.5h-30.4l9.5-8.5L524,624.5l-2.5-8.5
			H549.6z M517.2,742.3H541l-12.3-78.8L517.2,742.3z"/>
	</g>
	<g class="st0">
		<path d="M778.8,736l-16.1-5.3c-11.8,37.4-46.2,61.7-85.3,61.7c-49.9,0-88.1-40.2-88.1-88.4c0-49.4,40.9-88.9,88.6-88.9
			c40.7,0,75.8,27.4,86.1,67h-15.6c-1.3-29.4-22.1-48.4-51.5-48.4c-44.9,0-89.4,44.7-89.4,89.6c0,29.9,21.1,51.2,50.7,51.2
			c30.6,0,59.2-18.8,77.1-46.4H713v-11h65.8V736z"/>
	</g>
	<g class="st0">
		<path d="M832.2,791.7h-48.7l10.3-8.5V624.5l-10.3-8.5h48.7l-10.3,8.5v158.6L832.2,791.7z"/>
		<path d="M1020.9,718.4c-7.5,43.2-44.2,74-88.1,74c-48.7,0-88.1-39.9-88.1-88.9c0-48.4,39.7-88.4,88.6-88.4
			c40.7,0,75.6,27.4,85.8,67h-15.3c-1.3-28.9-22.6-48.4-51.2-48.4c-45.2,0-90.1,44.4-90.1,89.9c0,30.1,21.6,51,52,51
			c33.4,0,67-25.1,81.3-56.2H1020.9z"/>
	</g>
	<g class="st0">
		<path d="M522,913.4c-7.5,43.2-44.2,74-88.1,74c-48.7,0-88.1-39.9-88.1-88.9c0-48.4,39.7-88.4,88.6-88.4c40.7,0,75.6,27.4,85.8,67
			h-15.3c-1.3-28.9-22.6-48.4-51.2-48.4c-45.2,0-90.1,44.4-90.1,89.9c0,30.1,21.6,51,52,51c33.4,0,67-25.1,81.3-56.2H522z"/>
	</g>
	<g class="st0">
		<path d="M620.2,811l-14.1,13.1v128c0,19.8-15.8,35.4-36.6,35.4c-20.3,0-36.6-15.6-36.6-35.1V819.6l-9.5-8.5h47.2l-9.5,8.5v132
			c0,9.3,7.5,16.8,16.8,16.8c9,0,16.8-5.8,16.8-17.1V824.1L580.5,811H620.2z"/>
	</g>
	<g class="st0">
		<path d="M676.1,986.7h-48.7l10.3-8.5V819.6l-10.3-8.5h48.7l-10.3,8.5v158.6L676.1,986.7z"/>
	</g>
	<g class="st0">
		<path d="M684.4,857.5c0-28.4,18.3-47.2,45.7-47.2c10.5,0,20.6,3.5,27.9,6.3l10.3-6.3v57.2c-21.6-41.4-30.4-47.9-44.2-47.9
			c-11.5,0-19.8,8-19.8,21.1c0,15.1,19.1,26.4,36.4,40.2c18.1,14.6,34.6,27.6,34.6,59c0,31.1-21.8,47.7-44.9,47.7
			c-11,0-23.6-2.5-35.4-9.3l-10.5,9.3v-63.8c12,26.4,31.9,51.7,51.2,51.7c11,0,20.1-8.3,20.1-22.8c0-15.6-10.5-22.6-27.9-35.9
			C713.5,906.2,684.4,886.6,684.4,857.5z"/>
	</g>
	<g class="st0">
		<path d="M826.2,986.7h-48.7l10.3-8.5V819.6l-10.3-8.5h48.7l-10.3,8.5v158.6L826.2,986.7z"/>
	</g>
	<g class="st0">
		<path d="M909.8,811h40.7l-14.6,13.1v163.4l-70-133.3v119.5l14.6,13.1h-40.7l14.6-13.1V838.1L837.2,811h36.6l50.5,93.6v-80.6
			L909.8,811z"/>
	</g>
	<g class="st0">
		<path d="M958.7,811h66v36.6l-11.3-25.1h-16.6v68.5h5.8l10.5-23.6v58.2l-10.3-23.1h-6v72.5h16.6l11.3-25.1v36.6h-66l10-8.5V819.6
			L958.7,811z"/>
	</g>
</g>
</svg>
